<svg width="30" height="28" viewBox="0 0 30 28" fill="none" xmlns="http://www.w3.org/2000/svg">
    <path d="M29.1739 17.1471L25.8978 3.71433C25.3872 1.62266 23.5972 0.0971039 21.545 0.00488167C20.2561 -0.0528961 19.0367 0.403771 18.1078 1.29155C17.1783 2.18044 16.6667 3.37766 16.6667 4.66266V7.0221H13.3333V4.66266C13.3333 3.37766 12.8217 2.18044 11.8922 1.2921C10.9633 0.403771 9.74 -0.0545627 8.455 0.00543732C6.40222 0.0976595 4.61222 1.62321 4.10222 3.71488L0.825556 17.1482C0.300556 18.1004 0 19.1932 0 20.3554C0 24.0315 2.99056 27.0221 6.66667 27.0221C10.2322 27.0221 13.145 24.206 13.3167 20.6821C13.3211 20.6543 13.3333 20.6293 13.3333 20.6004V20.356V15.356H16.6667V20.356V20.6004C16.6667 20.6277 16.6789 20.6515 16.6828 20.6777C16.8522 24.2038 19.7661 27.0221 23.3333 27.0221C27.0094 27.0221 30 24.0315 30 20.3554C30 19.1927 29.6994 18.0999 29.1739 17.1471ZM6.66667 25.911C3.60333 25.911 1.11111 23.4188 1.11111 20.3554C1.11111 19.3438 1.38722 18.3971 1.86222 17.5788C1.96444 17.4027 2.07611 17.2343 2.19556 17.0721C2.225 17.0321 2.25389 16.9921 2.28444 16.9532C2.56389 16.5943 2.88278 16.2727 3.23444 15.9954C3.26611 15.9704 3.29889 15.9477 3.33056 15.9232C3.48611 15.806 3.64778 15.6965 3.81444 15.5965C3.84444 15.5782 3.87389 15.5593 3.90444 15.5415C4.29722 15.3154 4.71778 15.1382 5.15667 15.0132C5.20111 15.0004 5.24611 14.9899 5.29111 14.9788C5.46556 14.9338 5.64278 14.8982 5.82167 14.8704C5.87722 14.8615 5.93222 14.8515 5.98833 14.8449C6.21222 14.8171 6.43833 14.7993 6.66667 14.7993C9.73 14.7993 12.2222 17.2915 12.2222 20.3549C12.2222 20.3993 12.2167 20.4415 12.2156 20.4854L12.21 20.5771C12.21 20.5782 12.2106 20.5793 12.2106 20.5804C12.0911 23.5393 9.65389 25.911 6.66667 25.911ZM11.765 16.0688C11.7217 16.0171 11.6744 15.9699 11.6294 15.9199C11.5094 15.7854 11.3856 15.6554 11.255 15.5315C11.1939 15.4732 11.1311 15.4171 11.0678 15.3615C10.94 15.2488 10.8078 15.1415 10.6717 15.0388C10.6083 14.991 10.5461 14.9415 10.4811 14.896C10.3028 14.771 10.1183 14.6543 9.92778 14.5471C9.90278 14.5332 9.87945 14.516 9.85445 14.5027C9.63778 14.3843 9.41333 14.2804 9.18333 14.186C9.11556 14.1582 9.04556 14.136 8.97667 14.1104C8.80889 14.0482 8.63889 13.9915 8.465 13.9427C8.38111 13.9193 8.29722 13.8977 8.21167 13.8777C8.03833 13.8365 7.86278 13.8032 7.68444 13.776C7.60556 13.7638 7.52722 13.7488 7.44722 13.7399C7.19056 13.7099 6.93111 13.6899 6.66667 13.6899C6.45556 13.6899 6.24556 13.7015 6.03778 13.7215C5.95222 13.7293 5.86889 13.7438 5.78444 13.7549C5.66611 13.771 5.54833 13.7865 5.43167 13.8088C5.32667 13.8282 5.22389 13.8532 5.12111 13.8777C5.02944 13.8999 4.93833 13.9221 4.84778 13.9482C4.73556 13.9799 4.62444 14.0149 4.51444 14.0527C4.43722 14.0793 4.36111 14.1077 4.285 14.1365C4.17056 14.1804 4.05722 14.226 3.94556 14.276C3.87722 14.3065 3.81056 14.3404 3.74333 14.3738C3.63056 14.4293 3.51722 14.4843 3.40778 14.546C3.34611 14.5804 3.28722 14.6193 3.22722 14.656C3.11667 14.7227 3.00556 14.7882 2.89944 14.861C2.87167 14.8799 2.84611 14.9021 2.81833 14.9215C2.69111 15.0121 2.56389 15.1032 2.44333 15.2021L5.18167 3.97821C5.57556 2.36266 6.94222 1.18599 8.505 1.11544C9.49 1.06322 10.4167 1.41933 11.1244 2.09599C11.8322 2.7721 12.2222 3.68377 12.2222 4.66266V7.57766V14.7999V16.6738C12.2178 16.6677 12.2128 16.6621 12.2083 16.6554C12.0717 16.451 11.9228 16.256 11.765 16.0688ZM13.3333 14.2443V8.13321H16.6667V14.2443H13.3333ZM17.7778 16.6738V14.7999V7.57766V4.66266C17.7778 3.68377 18.1678 2.7721 18.8756 2.09544C19.5433 1.45766 20.4083 1.11155 21.3283 1.11155C21.3839 1.11155 21.4389 1.11266 21.495 1.11544C23.0578 1.18599 24.4244 2.36266 24.8183 3.97821L27.5556 15.201C27.3061 14.996 27.0372 14.8143 26.7594 14.6471C26.7039 14.6138 26.65 14.5782 26.5939 14.5465C26.4822 14.4832 26.3667 14.4271 26.2511 14.3704C26.1861 14.3388 26.1222 14.306 26.0561 14.2765C25.9433 14.226 25.8289 14.1799 25.7128 14.1354C25.6378 14.1065 25.5628 14.0788 25.4872 14.0527C25.3767 14.0149 25.265 13.9793 25.1517 13.9471C25.0617 13.9215 24.9711 13.8988 24.88 13.8771C24.7767 13.8527 24.6733 13.8277 24.5683 13.8082C24.4522 13.786 24.3344 13.7704 24.2161 13.7543C24.1317 13.7432 24.0478 13.7288 23.9622 13.721C23.7544 13.701 23.5444 13.6888 23.3333 13.6888C23.0689 13.6888 22.8089 13.7082 22.5528 13.7388C22.4728 13.7482 22.395 13.7627 22.3156 13.7749C22.1372 13.8021 21.9617 13.8354 21.7883 13.8765C21.7033 13.8971 21.6189 13.9182 21.535 13.9415C21.3611 13.9904 21.1911 14.0471 21.0233 14.1093C20.9544 14.1349 20.8844 14.1571 20.8167 14.1849C20.5867 14.2793 20.3617 14.3832 20.1456 14.5015C20.1206 14.5154 20.0972 14.5321 20.0722 14.546C19.8817 14.6532 19.6972 14.7699 19.5189 14.8949C19.4539 14.9404 19.3917 14.9893 19.3283 15.0377C19.1922 15.1404 19.06 15.2477 18.9322 15.3604C18.8689 15.4165 18.8061 15.4727 18.745 15.5304C18.6144 15.6543 18.4906 15.7843 18.3706 15.9188C18.3256 15.9688 18.2783 16.0165 18.235 16.0677C18.0772 16.2549 17.9283 16.4499 17.7917 16.6543C17.7872 16.6621 17.7822 16.6677 17.7778 16.6738ZM23.3333 25.911C20.3461 25.911 17.9089 23.5393 17.7894 20.581C17.7894 20.5799 17.79 20.5788 17.79 20.5777L17.7844 20.486C17.7833 20.4421 17.7778 20.3999 17.7778 20.3554C17.7778 17.2921 20.27 14.7999 23.3333 14.7999C23.5617 14.7999 23.7878 14.8177 24.0117 14.846C24.0678 14.8527 24.1228 14.8627 24.1783 14.8715C24.3578 14.8993 24.535 14.9349 24.7094 14.9799C24.7539 14.9915 24.7989 15.0015 24.8428 15.0143C25.2817 15.1393 25.7028 15.3165 26.0961 15.5432C26.1256 15.5604 26.1539 15.5788 26.1833 15.596C26.3517 15.6971 26.5144 15.8071 26.6717 15.926C26.7022 15.9493 26.7339 15.971 26.7639 15.9949C27.1172 16.2727 27.4372 16.5954 27.7172 16.956C27.7461 16.9932 27.7744 17.0315 27.8028 17.0699C27.9239 17.2338 28.0372 17.4049 28.1406 17.5838C28.6133 18.4004 28.8889 19.3454 28.8889 20.3554C28.8889 23.4188 26.3967 25.911 23.3333 25.911Z" fill="black"/>
</svg>
