<svg width="30" height="30" viewBox="0 0 30 30" fill="none" xmlns="http://www.w3.org/2000/svg">
    <path d="M29.648 13.689L25.1859 9.54562V2.75765H20.0458V4.77307L14.9058 0L0.164068 13.689C-0.0435909 13.8823 -0.055927 14.2077 0.137339 14.4158C0.330092 14.6235 0.655458 14.6353 0.864145 14.4426L2.57013 12.8584V30H10.7942H19.0183H27.2425V12.8579L28.9484 14.442C29.0471 14.5341 29.1731 14.5793 29.2985 14.5793C29.4367 14.5793 29.574 14.5243 29.6747 14.4153C29.868 14.2077 29.8557 13.8823 29.648 13.689ZM21.0739 3.78566H24.1579V8.59111L21.0739 5.72758V3.78566ZM11.8217 28.972V18.1455C11.8217 17.8797 12.0376 17.6638 12.3034 17.6638H17.5082C17.7739 17.6638 17.9898 17.8797 17.9898 18.1455V28.972H11.8217V28.972ZM26.2139 28.972H19.0178V18.1455C19.0178 17.3128 18.3409 16.6358 17.5082 16.6358H12.3034C11.4707 16.6358 10.7937 17.3128 10.7937 18.1455V28.972H3.59763V11.9034L14.9058 1.40272L22.2458 8.21845L25.1859 10.9483L26.2139 11.9029V28.972V28.972Z" fill="black"/>
</svg>
