<svg width="30" height="30" viewBox="0 0 30 30" fill="none" xmlns="http://www.w3.org/2000/svg">
    <path d="M4 11C1.7945 11 0 12.7945 0 15C0 17.2055 1.7945 19 4 19C6.2055 19 8 17.2055 8 15C8 12.7945 6.2055 11 4 11ZM4 18C2.3455 18 1 16.6545 1 15C1 13.3455 2.3455 12 4 12C5.6545 12 7 13.3455 7 15C7 16.6545 5.6545 18 4 18Z" fill="black"/>
    <path d="M26 11C23.7945 11 22 12.7945 22 15C22 17.2055 23.7945 19 26 19C28.2055 19 30 17.2055 30 15C30 12.7945 28.2055 11 26 11ZM26 18C24.3455 18 23 16.6545 23 15C23 13.3455 24.3455 12 26 12C27.6545 12 29 13.3455 29 15C29 16.6545 27.6545 18 26 18Z" fill="black"/>
    <path d="M15 11C12.7945 11 11 12.7945 11 15C11 17.2055 12.7945 19 15 19C17.2055 19 19 17.2055 19 15C19 12.7945 17.2055 11 15 11ZM15 18C13.3455 18 12 16.6545 12 15C12 13.3455 13.3455 12 15 12C16.6545 12 18 13.3455 18 15C18 16.6545 16.6545 18 15 18Z" fill="black"/>
</svg>
