<svg width="30" height="30" viewBox="0 0 30 30" fill="none" xmlns="http://www.w3.org/2000/svg">
    <path d="M28.0233 24.7042C25.4814 22.1782 24.1931 19.1885 24.1931 15.8182V10.9124C24.2165 7.17218 21.7014 4.69145 19.5404 3.70364C18.9213 3.42055 18.2831 3.20236 17.6345 3.04036V2.72727C17.6345 1.22345 16.4111 0 14.9073 0C13.4034 0 12.18 1.22345 12.18 2.72727V3.08782C11.5958 3.24545 11.0214 3.45109 10.464 3.70855C8.07544 4.80927 5.65581 7.46236 5.63399 10.9091V15.8182C5.63399 19.3025 4.40344 22.2922 1.97672 24.7042C1.83217 24.8482 1.77981 25.0604 1.8409 25.2551C1.90199 25.4498 2.06726 25.5938 2.26854 25.6287L7.44544 26.5227C8.40981 26.6891 9.29781 26.8255 10.1427 26.9378C11.0951 28.8033 12.9644 30 15.0065 30C17.0493 30 18.9191 28.8022 19.8704 26.9356C20.712 26.8238 21.5956 26.688 22.5545 26.5222L27.7309 25.6282C27.9322 25.5938 28.0969 25.4493 28.1585 25.2545C28.2202 25.0604 28.1678 24.8482 28.0233 24.7042ZM13.2704 2.72727C13.2704 1.82509 14.0045 1.09091 14.9067 1.09091C15.8089 1.09091 16.5431 1.82509 16.5431 2.72727V2.82655C15.456 2.67055 14.3531 2.67709 13.2704 2.85218V2.72727ZM15.0065 28.9091C13.6254 28.9091 12.3349 28.2229 11.5064 27.1009C12.7254 27.2264 13.8633 27.2896 15.0005 27.2896C16.1422 27.2896 17.2838 27.2264 18.5078 27.0993C17.6787 28.2224 16.3876 28.9091 15.0065 28.9091ZM22.3691 25.4471C21.3224 25.6276 20.3629 25.7744 19.4564 25.89C19.4553 25.89 19.4542 25.89 19.4531 25.89C19.0538 25.9407 18.6654 25.9849 18.2853 26.0231C18.2814 26.0236 18.2771 26.0236 18.2733 26.0242C17.9258 26.0591 17.586 26.0869 17.25 26.1115C17.1862 26.1164 17.1229 26.1202 17.0591 26.1245C16.7678 26.1436 16.4798 26.1589 16.1934 26.1698C16.1345 26.172 16.0756 26.1753 16.0167 26.1769C15.3382 26.1998 14.6689 26.1998 13.9909 26.1775C13.9309 26.1753 13.8698 26.1725 13.8098 26.1698C13.5273 26.1589 13.2425 26.1442 12.9551 26.1251C12.8874 26.1207 12.8198 26.1164 12.7516 26.1115C12.4244 26.088 12.0933 26.0602 11.7545 26.0269C11.7425 26.0258 11.7311 26.0247 11.7196 26.0236C11.3422 25.986 10.9565 25.9418 10.56 25.8916C10.5584 25.8916 10.5567 25.8916 10.5551 25.8916C9.64526 25.7765 8.68253 25.6287 7.6309 25.4476L3.45217 24.7255C5.62472 22.2415 6.7249 19.2502 6.7249 15.8182V10.9124C6.74344 7.94782 8.84563 5.65582 10.92 4.69909C11.5369 4.41491 12.1767 4.20273 12.8274 4.05382C12.8329 4.05273 12.8389 4.05327 12.8444 4.05218C14.1884 3.75 15.6191 3.73636 16.9789 4.01509C16.986 4.01673 16.9931 4.01345 17.0002 4.01455C17.7114 4.16291 18.4118 4.38764 19.0865 4.69582C21.0987 5.616 23.1207 7.89273 23.1016 10.9096V15.8187C23.1016 19.1095 24.288 22.1695 26.5451 24.7265L22.3691 25.4471Z" fill="black"/>
    <path d="M18.4069 6.18437C16.2933 5.21837 13.7051 5.21728 11.6056 6.18546C10.4084 6.73746 8.37764 8.35255 8.36128 10.9058C8.35964 11.2069 8.60182 11.4524 8.90346 11.4545C8.90455 11.4545 8.90564 11.4545 8.90673 11.4545C9.20618 11.4545 9.45055 11.2129 9.45218 10.9124C9.46473 8.90673 11.0989 7.62055 12.0622 7.176C13.8791 6.33764 16.1236 6.33982 17.9525 7.176C18.2264 7.30146 18.5504 7.18091 18.6758 6.90709C18.8013 6.63273 18.6807 6.30928 18.4069 6.18437Z" fill="black"/>
</svg>
